<svg xmlns="http://www.w3.org/2000/svg" xmlns:xlink="http://www.w3.org/1999/xlink" width="24" height="24" preserveAspectRatio="xMidYMid meet" viewBox="0 0 24 24" style="-ms-transform: rotate(360deg); -webkit-transform: rotate(360deg); transform: rotate(360deg);"><path d="M9 7h2l1 2.5L13 7h2l-2 5l2 5h-2l-1-2.5l-1 2.5H9l2-5l-2-5m3-5a10 10 0 0 1 10 10a10 10 0 0 1-10 10A10 10 0 0 1 2 12A10 10 0 0 1 12 2m0 2a8 8 0 0 0-8 8a8 8 0 0 0 8 8a8 8 0 0 0 8-8a8 8 0 0 0-8-8z" fill="red"/><rect x="0" y="0" width="24" height="24" fill="rgba(0, 0, 0, 0)" /></svg>